<?xml version="1.0" standalone="no"?>
<!DOCTYPE svg PUBLIC "-//W3C//DTD SVG 20010904//EN"
 "http://www.w3.org/TR/2001/REC-SVG-20010904/DTD/svg10.dtd">
<svg version="1.0" xmlns="http://www.w3.org/2000/svg"
 width="700.000000pt" height="700.000000pt" viewBox="0 0 700.000000 700.000000"
 preserveAspectRatio="xMidYMid meet">
<metadata>
Created by potrace 1.14, written by Peter Selinger 2001-2017
</metadata>
<g transform="translate(0.000000,700.000000) scale(0.100000,-0.100000)"
fill="#000000" stroke="none">
<path d="M3259 5049 c-189 -8 -402 -31 -569 -59 -100 -18 -393 -79 -396 -83
-1 -1 -13 -28 -27 -59 -53 -119 -210 -243 -233 -184 -3 8 8 35 26 61 34 50 64
114 56 122 -7 8 -186 -54 -305 -104 -440 -187 -766 -430 -958 -713 -50 -74
-94 -125 -149 -173 -116 -99 -149 -116 -259 -132 -108 -15 -182 -46 -242 -101
-186 -170 -191 -530 -12 -715 76 -78 181 -119 304 -119 68 0 150 -30 199 -73
36 -31 38 -36 62 -167 171 -939 652 -1575 1429 -1894 432 -176 1006 -258 1597
-228 543 28 936 117 1293 292 239 118 394 230 570 411 321 332 511 748 610
1332 14 82 25 162 25 179 0 67 134 148 245 148 261 0 434 188 435 470 0 262
-135 431 -372 463 -66 10 -109 22 -148 43 -72 39 -246 207 -330 319 -142 189
-367 375 -636 528 -82 46 -295 138 -452 196 l-83 30 -24 -37 c-52 -81 -137
-152 -182 -152 -33 0 -30 26 12 95 47 78 62 125 44 136 -23 14 -295 77 -447
103 -158 28 -385 54 -506 58 -76 3 -79 2 -99 -25 -33 -42 -30 -127 6 -191 48
-87 29 -103 -39 -31 -56 57 -82 137 -67 206 l9 47 -44 6 c-51 7 -108 6 -343
-5z m862 -549 c982 -130 1704 -547 1835 -1060 21 -84 21 -226 0 -310 -94 -370
-490 -691 -1103 -896 -572 -191 -1309 -252 -1975 -163 -801 106 -1452 413
-1717 809 -93 139 -131 255 -131 405 0 149 38 266 130 404 85 127 77 122 227
126 70 1 137 6 147 11 19 7 18 5 -3 -29 -57 -93 -72 -145 -46 -170 41 -41 155
-1 278 99 60 49 66 51 53 25 -9 -16 -34 -42 -56 -58 -48 -33 -155 -188 -229
-332 -142 -276 -153 -472 -33 -571 21 -17 68 -40 106 -52 60 -18 85 -20 210
-15 140 6 228 21 361 66 33 11 60 19 61 18 1 -1 -5 -36 -13 -77 -43 -218 29
-402 178 -458 126 -47 435 -102 574 -101 140 0 272 37 332 92 l23 20 127 -24
c179 -33 396 -34 499 -2 86 27 163 90 189 155 36 90 15 249 -52 383 -66 131
-217 320 -317 394 -16 12 -26 25 -22 29 4 4 62 9 128 11 143 4 222 -12 347
-70 46 -21 92 -39 103 -39 28 0 68 45 68 75 0 15 -12 38 -27 55 -16 15 -48 67
-72 115 -155 307 -455 495 -789 496 -124 0 -148 -7 -185 -51 -32 -38 -41 -69
-33 -113 15 -77 86 -119 178 -106 88 13 211 10 273 -6 81 -21 211 -86 260
-130 35 -32 37 -36 15 -31 -14 3 -69 11 -122 17 -171 20 -336 -12 -500 -99
-70 -36 -105 -64 -176 -136 -48 -50 -98 -104 -109 -121 l-22 -30 -43 41 c-48
46 -112 90 -174 122 l-42 21 -4 73 c-2 44 -11 89 -23 113 -20 41 -124 154
-159 173 -18 9 -10 20 82 111 l102 102 80 9 c109 12 212 39 228 58 6 9 12 30
12 48 0 29 3 32 45 43 61 15 73 39 44 91 -13 22 -43 56 -68 75 -53 42 -51 43
22 10 162 -71 327 -73 327 -4 0 32 -27 76 -65 105 -20 15 -34 28 -32 30 1 2
42 -10 89 -27 233 -80 354 -24 225 105 l-43 43 70 36 c39 20 87 48 106 61 43
31 59 31 251 6z m-1643 -115 c-18 -37 -27 -45 -50 -45 -40 0 -64 -39 -49 -81
14 -41 14 -46 -4 -53 -9 -3 -36 9 -64 29 -124 89 -232 99 -231 22 0 -27 31
-97 62 -140 19 -27 14 -25 -30 15 -29 26 -80 65 -113 87 l-59 40 77 29 c123
47 430 139 470 141 9 1 6 -14 -9 -44z m-655 -253 c21 -42 23 -52 10 -41 -97
81 -93 76 -70 87 31 15 29 16 60 -46z m1088 -110 c-7 -2 -18 1 -23 6 -8 8 -4
9 13 5 13 -4 18 -8 10 -11z"/>
</g>
</svg>
